<svg width="142" height="142" viewBox="0 0 142 142" fill="none" xmlns="http://www.w3.org/2000/svg">
<rect width="142" height="142" fill="white"/>
<path fill-rule="evenodd" clip-rule="evenodd" d="M6 71C6 55.319 11.5528 40.9349 20.7993 29.7067C32.5414 39.6123 40 54.4351 40 71C40 87.5649 32.5414 102.388 20.7993 112.293C11.5528 101.065 6 86.681 6 71ZM51 71C51 51.3501 42.2807 33.7367 28.5 21.8178C39.8953 11.962 54.7514 6 71 6C87.2486 6 102.105 11.962 113.5 21.8178C99.7193 33.7367 91 51.3501 91 71C91 90.6499 99.7193 108.263 113.5 120.182C102.105 130.038 87.2486 136 71 136C54.7514 136 39.8953 130.038 28.5 120.182C42.2807 108.263 51 90.6499 51 71ZM121.201 29.7067C130.447 40.9349 136 55.319 136 71C136 86.681 130.447 101.065 121.201 112.293C109.459 102.388 102 87.5649 102 71C102 54.4351 109.459 39.6123 121.201 29.7067Z" fill="black"/>
</svg>
